<svg width="41" height="41" viewBox="0 0 41 41" fill="none" xmlns="http://www.w3.org/2000/svg">
<path d="M20.5903 29.5879C21.8159 25.2227 25.2271 21.8115 29.5923 20.5859L31.3872 20.082L29.5923 19.5781C25.2271 18.3526 21.8159 14.9413 20.5903 10.5762L20.0864 8.78125L19.5825 10.5762C18.357 14.9413 14.9457 18.3526 10.5806 19.5781L8.78564 20.082L10.5806 20.5859C14.9457 21.8115 18.357 25.2227 19.5825 29.5879L20.0864 31.3828L20.5903 29.5879Z" stroke="#898989" stroke-width="2"/>
<path d="M20.5903 29.5879C21.8159 25.2227 25.2271 21.8115 29.5923 20.5859L31.3872 20.082L29.5923 19.5781C25.2271 18.3526 21.8159 14.9413 20.5903 10.5762L20.0864 8.78125L19.5825 10.5762C18.357 14.9413 14.9457 18.3526 10.5806 19.5781L8.78564 20.082L10.5806 20.5859C14.9457 21.8115 18.357 25.2227 19.5825 29.5879L20.0864 31.3828L20.5903 29.5879Z" stroke="black" stroke-opacity="0.2" stroke-width="2"/>
</svg>
